<svg data-name="Lag 1" xmlns="http://www.w3.org/2000/svg" viewBox="0 0 35.4 35.4"><path d="M35.4 16.7H30l2.7-2.3-1.3-1.5-4.5 3.8H20l3.2-3.2 4.4-.4-.2-2-2 .2 2.4-2.4-1.4-1.4-2.4 2.4.2-2-2-.2-.4 4.4-3.2 3.2V8.5L22.5 4l-1.6-1.3-2.2 2.7V0h-2v5.4l-2.2-2.7L12.9 4l3.8 4.5v6.8L13.6 12l-.4-4.4-2 .2.2 2-2.5-2.4-1.4 1.4 2.4 2.4-2-.2-.1 2 4.3.4 3.2 3.2H8.5L4 12.9l-1.3 1.5 2.7 2.3H0v2h5.4l-2.7 2.2L4 22.5l4.5-3.8h6.8l-3.2 3.1-4.3.4.2 2 2-.2-2.5 2.5L9 27.9l2.4-2.4-.1 2 2 .1.4-4.4 3.1-3.1v6.7L13 31.4l1.6 1.3 2.2-2.7v5.3h2V30l2.3 2.6 1.5-1.2-3.8-4.6v-6.7l3.2 3.1.4 4.4 2-.2-.2-2 2.4 2.5 1.4-1.4-2.4-2.5 2 .2.2-2-4.4-.4-3.2-3.1H27l4.5 3.8 1.3-1.6-2.7-2.2h5.4v-2z"/></svg>