<svg id="Lag_1" data-name="Lag 1" xmlns="http://www.w3.org/2000/svg" viewBox="0 0 28.5 28.5"><defs><style>.cls-1{fill:none}</style></defs><path class="cls-1" d="M6.2 22.3a1.6 1.6 0 101.5 1.5 1.6 1.6 0 00-1.5-1.6zM22 22.3a1.6 1.6 0 101.6 1.5 1.5 1.5 0 00-1.6-1.6zM18.3 10.7h-6A2.7 2.7 0 019.8 8v-.1l.6-4.8H3.1v12.7h22.3c-.9-3.4-3.3-5-7.1-5z"/><path d="M6.2 19.1a4.7 4.7 0 104.7 4.7 4.7 4.7 0 00-4.7-4.7zm0 6.2a1.6 1.6 0 111.5-1.5 1.6 1.6 0 01-1.5 1.6zM22 19.1a4.7 4.7 0 104.7 4.7 4.7 4.7 0 00-4.7-4.7zm0 6.2a1.6 1.6 0 111.6-1.5 1.6 1.6 0 01-1.6 1.6zM18.3 7.6h-5.5l.6-4.2A2.9 2.9 0 0010.5 0h-8A2.5 2.5 0 000 2.5V16a2.9 2.9 0 002.9 2.8h22.5a3 3 0 003-3.8 9.6 9.6 0 00-10.1-7.5zM3 15.8V3.1h7.2L9.7 8V8a2.7 2.7 0 002.7 2.7h5.9c3.8 0 6.2 1.7 7 5.1z"/></svg>