<svg fill="#da2127" version="1.1" xmlns="http://www.w3.org/2000/svg" width="32" height="32" viewBox="0 -2 32 32"><path d="M22.625-2l-22.625 22.625 9.375 9.375 22.625-22.625zM9.375 27.313l-6.688-6.688 1.313-1.25 3.625 3.563 1.313-1.313-3.625-3.625 1.375-1.313 2.25 2.25 1.375-1.313-2.313-2.313 1.375-1.313 3.563 3.625 1.375-1.375-3.625-3.563 1.313-1.313 2.25 2.25 1.313-1.313-2.25-2.313 1.313-1.313 3.625 3.625 1.313-1.313-3.563-3.625 1.313-1.375 2.313 2.313 1.313-1.375-2.25-2.25 1.313-1.313 3.625 3.563 1.313-1.313-3.625-3.625 1.375-1.313 6.625 6.625z"></path></svg>
